<svg xmlns="http://www.w3.org/2000/svg" width="257" height="85" viewBox="0 0 257 85" version="1.1"><path d="M 29.627 2.165 C 28.733 3.531, 26.922 7.765, 25.604 11.574 C 24.287 15.383, 21.543 22.775, 19.508 28 C 17.473 33.225, 15.134 39.750, 14.310 42.500 C 13.487 45.250, 12.243 48.850, 11.547 50.500 C 8.476 57.778, 7.604 60.138, 3.846 71.339 C 1.657 77.862, 0.009 83.332, 0.183 83.493 C 0.640 83.916, 11.627 84.333, 17.602 84.153 L 22.704 84 25.268 76.750 C 29.714 64.178, 31.848 58.888, 33.065 57.422 L 34.245 56 49.110 56 L 63.975 56 66.487 59.980 C 67.869 62.169, 69 64.209, 69 64.513 C 69 65.848, 78.283 83.559, 79.334 84.227 L 80.500 84.969 92.281 84.985 L 104.063 85 104.686 83.375 L 105.310 81.750 99.508 70.017 L 93.707 58.284 94.412 57.142 L 95.118 56 104.043 56 L 112.968 56 116.071 53.227 L 119.174 50.455 121.527 43.977 C 122.821 40.415, 126.372 30.750, 129.419 22.500 L 134.959 7.500 134.979 4.857 L 135 2.214 133.516 1.645 L 132.032 1.075 81.643 0.379 L 31.254 -0.317 29.627 2.165 M 187.771 0.957 L 153.043 1.500 150.626 4 L 148.210 6.500 144.183 17.500 C 141.969 23.550, 138.067 33.900, 135.513 40.500 C 132.958 47.100, 128.849 57.900, 126.382 64.500 L 121.895 76.500 121.791 79.399 L 121.687 82.298 123.594 83.756 L 125.500 85.215 144 84.610 C 154.175 84.278, 177.012 84.004, 194.750 84.003 L 227 84 227 82.913 C 227 81.340, 205.742 38.639, 204.524 37.765 L 203.500 37.031 191.719 37.015 L 179.937 37 179.335 38.569 L 178.733 40.139 184.896 52.117 L 191.060 64.094 190.471 65.047 L 189.882 66 170.500 66 L 151.118 66 150.624 65.200 L 150.130 64.401 155.627 48.950 C 158.650 40.453, 161.536 32.600, 162.039 31.500 C 162.542 30.400, 163.765 27.250, 164.758 24.500 L 166.562 19.500 197.281 19.236 L 228 18.971 228 20.390 C 228 21.170, 226.839 25.114, 225.421 29.154 C 224.002 33.194, 222.138 38.570, 221.278 41.100 L 219.714 45.699 225.454 56.600 C 228.610 62.595, 231.592 67.920, 232.080 68.433 L 232.967 69.367 233.513 68.820 C 234.208 68.125, 245.785 37.380, 249.824 25.500 C 251.507 20.550, 253.819 13.899, 254.962 10.720 L 257.038 4.940 255.984 2.970 L 254.930 1 240.715 0.986 C 232.897 0.979, 225.600 0.847, 224.500 0.693 C 223.400 0.540, 206.872 0.658, 187.771 0.957 M 46.291 20.250 C 44.975 21.976, 41 33.332, 41 35.367 L 41 37.029 71.223 36.765 L 101.445 36.500 104.163 28.558 L 106.881 20.617 106.382 19.808 L 105.882 19 76.563 19 L 47.245 19 46.291 20.250" stroke="none" fill="currentColor" fill-rule="evenodd"/></svg>