<svg xmlns="http://www.w3.org/2000/svg" width="2000" height="2037" viewBox="0 0 2000 2037" version="1.1"><path d="M 886.967 444.498 L 774.500 795.996 396.528 795.998 C 25.440 796, 18.591 796.035, 20.528 797.896 C 21.613 798.939, 159.075 899.351, 326 1021.035 C 492.925 1142.718, 629.880 1242.617, 630.344 1243.033 C 630.808 1243.448, 581.599 1398.748, 520.991 1588.144 C 391.183 1993.783, 406.850 1944.272, 408.502 1943.638 C 409.238 1943.355, 542.289 1846.491, 704.170 1728.384 C 1052.962 1473.908, 947.038 1473.908, 1295.830 1728.384 C 1457.711 1846.491, 1590.762 1943.355, 1591.498 1943.638 C 1593.150 1944.272, 1608.817 1993.783, 1479.009 1588.144 C 1418.401 1398.748, 1369.192 1243.448, 1369.656 1243.033 C 1370.120 1242.617, 1507.075 1142.718, 1674 1021.035 C 1840.925 899.351, 1978.387 798.939, 1979.472 797.896 C 1981.409 796.035, 1974.560 796, 1603.472 795.998 L 1225.500 795.996 1113.033 444.498 C 1051.176 251.174, 1000.311 93, 1000 93 C 999.689 93, 948.824 251.174, 886.967 444.498" fill="currentColor" fill-rule="evenodd"/></svg>