<svg xmlns="http://www.w3.org/2000/svg" width="166" height="44" viewBox="0 0 166 44" version="1.1"><path d="M 9.500 1.569 C 6.162 3.302, 1 7.928, 1 9.187 C 1 9.634, 5.692 10, 11.428 10 L 21.855 10 25.500 16 L 29.145 22 25.500 28 L 21.855 34 11.428 34 C 5.692 34, 1 34.366, 1 34.813 C 1 36.341, 6.495 40.892, 10.218 42.447 C 18.671 45.978, 28.064 43.752, 34.946 36.588 L 38.392 33 86.255 33 L 134.117 33 138.165 36.250 C 141.769 39.144, 142.895 39.498, 148.456 39.483 C 153.734 39.469, 155.266 39.035, 158.359 36.675 C 165.953 30.883, 168.239 20.507, 163.555 13.088 C 157.394 3.328, 145.585 1.036, 137.597 8.049 L 134.236 11 86.321 11 L 38.406 11 34.532 7.033 C 32.401 4.851, 29.205 2.376, 27.428 1.533 C 23.237 -0.456, 13.364 -0.436, 9.500 1.569 M 142.948 12.348 L 137.500 15.615 137.203 21.777 L 136.906 27.938 141.703 30.950 C 144.341 32.607, 147.109 33.971, 147.853 33.981 C 148.597 33.991, 151.409 32.763, 154.102 31.250 L 158.998 28.500 158.999 21.991 C 159 16.856, 158.630 15.260, 157.250 14.433 C 156.287 13.856, 153.902 12.416, 151.948 11.233 L 148.396 9.082 142.948 12.348 M 43 22 L 43 25 85.500 25 L 128 25 128 22 L 128 19 85.500 19 L 43 19 43 22" stroke="none" fill="#fffcfc" fill-rule="evenodd"/><path d="" stroke="none" fill="#fcfcfc" fill-rule="evenodd"/></svg>